<svg xmlns:xlink="http://www.w3.org/1999/xlink" width="100" height="100" preserveAspectRatio="xMinYMin meet" xmlns="http://www.w3.org/2000/svg"><g transform="translate(.5 .5)"><defs><style>symbol{overflow:visible}</style><symbol id="4"><use xlink:href="#cloud-dark"/></symbol><symbol id="cloud-dark"><use xlink:href="#cloud-stroke-template" fill="#525552"/><use xlink:href="#cloud-inner-stroke-template" fill="#b6b6b6"/><use xlink:href="#cloud-inner-fill-template" fill="#c3c3c2"/></symbol><symbol id="cloud-inner-fill-template"><path d="M78.35 50.725c-.089 0-.18.091-.27.091-4.141-.271-6.93.72-9.18 3.779 1.89 1.621 3.239 3.78 3.779 6.21.271 1.08-1.89 3.601-2.25 2.07a10.32 10.32 0 0 0-3.6-5.67c-.091-.09-.18-.181-.18-.27-.09 0-.181 0-.271-.091-4.86-3.779-14.399-4.95-17.37 2.07-.18.45-.9 1.62-1.53 1.529-3.15-.629-6.75-.449-7.65 3.33-.27 1.17-2.61 2.881-2.16.721 1.17-5.13 5.13-7.92 10.26-7.29 4.05-6.84 12.959-8.28 19.44-3.78 2.52-3.689 5.58-5.67 10.17-5.85-1.71-6.479-7.65-11.25-14.76-11.25-4.05 0-7.83 1.621-10.53 4.23 0-.09-.09-.18-.09-.27-.09.36-.271.72-.54.99-1.98 1.98-2.97 4.23-3.42 6.93 0 .81-1.17 2.7-1.98 1.8-3.78-4.14-12.42-1.8-14.58 2.97-.63 1.44-2.79 2.07-1.89 0 2.61-5.76 11.34-10.8 17.1-6.66.9-2.7 2.34-4.95 4.411-7.11.089-.09.27-.18.359-.27-1.8-3.6-5.49-6.03-9.72-6.03-3.24 0-6.12 1.35-8.1 3.6-.9-.63-2.07-1.08-3.33-1.08-2.97 0-5.49 2.34-5.67 5.311a7.894 7.894 0 0 0-7.74 7.919v.36c-2.25.72-3.78 2.79-3.78 5.31v.449c-2.61 1.081-4.411 3.691-4.411 6.661a7.26 7.26 0 0 0 7.291 7.289h61.2c4.95 0 9-4.05 9-9 .002-4.678-3.508-8.548-8.008-8.998z"/></symbol><symbol id="cloud-inner-stroke-template"><path d="M82.13 69.175c5.58 0 10.08-4.5 10.08-10.08 0-5.31-4.05-9.63-9.18-9.99-.541-8.91-8.011-15.93-17.011-15.93-4.59 0-8.729 1.8-11.789 4.68-1.53-5.04-6.121-8.64-11.611-8.64-3.6 0-6.75 1.53-9 3.96-1.08-.72-2.339-1.17-3.689-1.17-3.33 0-6.12 2.61-6.39 5.94a8.797 8.797 0 0 0-8.64 8.82v.45c-2.52.81-4.23 3.15-4.23 5.94v.45c-2.88 1.26-4.95 4.14-4.95 7.47 0 4.5 3.6 8.1 8.1 8.1h68.31z"/></symbol><symbol id="cloud-stroke-template"><path d="M84.561 70.885c5.76 0 10.439-4.68 10.439-10.44 0-5.489-4.23-9.989-9.54-10.439-.63-9.27-8.28-16.65-17.729-16.65-4.771 0-9.091 1.89-12.241 4.86-1.529-5.22-6.389-9-12.149-9-3.69 0-7.02 1.62-9.36 4.14-1.08-.72-2.43-1.17-3.78-1.17-3.51 0-6.39 2.7-6.66 6.12-5.04.09-9 4.23-9 9.27v.45c-2.61.9-4.41 3.331-4.41 6.12v.45C7.07 55.944 5 58.915 5 62.425a8.45 8.45 0 0 0 8.46 8.46h71.101z"/></symbol></defs><use xlink:href="#04"/></g></svg>